<svg width="121" height="19" viewBox="0 0 121 19" fill="none" xmlns="http://www.w3.org/2000/svg">
<path d="M4.81481 14.832H10.1908V18H0.710813V1.152H4.81481V14.832ZM19.8763 18.168C18.2923 18.168 16.8363 17.8 15.5083 17.064C14.1963 16.328 13.1483 15.304 12.3643 13.992C11.5963 12.664 11.2123 11.176 11.2123 9.528C11.2123 7.88 11.5963 6.4 12.3643 5.088C13.1483 3.776 14.1963 2.752 15.5083 2.016C16.8363 1.28 18.2923 0.912 19.8763 0.912C21.4603 0.912 22.9083 1.28 24.2203 2.016C25.5483 2.752 26.5883 3.776 27.3403 5.088C28.1083 6.4 28.4923 7.88 28.4923 9.528C28.4923 11.176 28.1083 12.664 27.3403 13.992C26.5723 15.304 25.5323 16.328 24.2203 17.064C22.9083 17.8 21.4603 18.168 19.8763 18.168ZM19.8763 14.424C21.2203 14.424 22.2923 13.976 23.0923 13.08C23.9083 12.184 24.3163 11 24.3163 9.528C24.3163 8.04 23.9083 6.856 23.0923 5.976C22.2923 5.08 21.2203 4.632 19.8763 4.632C18.5163 4.632 17.4283 5.072 16.6123 5.952C15.8123 6.832 15.4123 8.024 15.4123 9.528C15.4123 11.016 15.8123 12.208 16.6123 13.104C17.4283 13.984 18.5163 14.424 19.8763 14.424ZM29.8395 9.552C29.8395 7.888 30.1995 6.408 30.9195 5.112C31.6395 3.8 32.6395 2.784 33.9195 2.064C35.2155 1.328 36.6795 0.959999 38.3115 0.959999C40.3115 0.959999 42.0235 1.488 43.4475 2.544C44.8715 3.6 45.8235 5.04 46.3035 6.864H41.7915C41.4555 6.16 40.9755 5.624 40.3515 5.256C39.7435 4.888 39.0475 4.704 38.2635 4.704C36.9995 4.704 35.9755 5.144 35.1915 6.024C34.4075 6.904 34.0155 8.08 34.0155 9.552C34.0155 11.024 34.4075 12.2 35.1915 13.08C35.9755 13.96 36.9995 14.4 38.2635 14.4C39.0475 14.4 39.7435 14.216 40.3515 13.848C40.9755 13.48 41.4555 12.944 41.7915 12.24H46.3035C45.8235 14.064 44.8715 15.504 43.4475 16.56C42.0235 17.6 40.3115 18.12 38.3115 18.12C36.6795 18.12 35.2155 17.76 33.9195 17.04C32.6395 16.304 31.6395 15.288 30.9195 13.992C30.1995 12.696 29.8395 11.216 29.8395 9.552ZM59.0647 15.024H52.7767L51.7687 18H47.4727L53.5687 1.152H58.3207L64.4168 18H60.0727L59.0647 15.024ZM58.0087 11.856L55.9207 5.688L53.8567 11.856H58.0087ZM80.6241 1.152V18H76.5201V11.064H70.1361V18H66.0321V1.152H70.1361V7.752H76.5201V1.152H80.6241ZM87.4507 4.44V7.848H92.9467V11.016H87.4507V14.712H93.6667V18H83.3467V1.152H93.6667V4.44H87.4507ZM100.195 14.832H105.571V18H96.0911V1.152H100.195V14.832ZM120.129 6.576C120.129 7.552 119.905 8.448 119.457 9.264C119.009 10.064 118.321 10.712 117.393 11.208C116.465 11.704 115.313 11.952 113.937 11.952H111.393V18H107.289V1.152H113.937C115.281 1.152 116.417 1.384 117.345 1.848C118.273 2.312 118.969 2.952 119.433 3.768C119.897 4.584 120.129 5.52 120.129 6.576ZM113.625 8.688C114.409 8.688 114.993 8.504 115.377 8.136C115.761 7.768 115.953 7.248 115.953 6.576C115.953 5.904 115.761 5.384 115.377 5.016C114.993 4.648 114.409 4.464 113.625 4.464H111.393V8.688H113.625Z" fill="#323F47"/>
</svg>
